<?xml version="1.0" encoding="utf-8" standalone="no"?>
<!DOCTYPE svg PUBLIC "-//W3C//DTD SVG 1.1//EN"
  "http://www.w3.org/Graphics/SVG/1.1/DTD/svg11.dtd">
<svg xmlns:xlink="http://www.w3.org/1999/xlink" width="460.8pt" height="345.6pt" viewBox="0 0 460.8 345.6" xmlns="http://www.w3.org/2000/svg" version="1.1">
 <metadata>
  <rdf:RDF xmlns:dc="http://purl.org/dc/elements/1.1/" xmlns:cc="http://creativecommons.org/ns#" xmlns:rdf="http://www.w3.org/1999/02/22-rdf-syntax-ns#">
   <cc:Work>
    <dc:type rdf:resource="http://purl.org/dc/dcmitype/StillImage"/>
    <dc:date>2024-12-10T07:46:50.830851</dc:date>
    <dc:format>image/svg+xml</dc:format>
    <dc:creator>
     <cc:Agent>
      <dc:title>Matplotlib v3.8.0, https://matplotlib.org/</dc:title>
     </cc:Agent>
    </dc:creator>
   </cc:Work>
  </rdf:RDF>
 </metadata>
 <defs>
  <style type="text/css">*{stroke-linejoin: round; stroke-linecap: butt}</style>
 </defs>
 <g id="figure_1">
  <g id="patch_1">
   <path d="M 0 345.6 
L 460.8 345.6 
L 460.8 0 
L 0 0 
L 0 345.6 
z
" style="fill: none"/>
  </g>
  <g id="axes_1">
   <g id="patch_2">
    <path d="M 184.416 56.564581 
L 158.809361 71.348581 
L 158.809361 100.916581 
L 184.416 115.700581 
L 210.022639 100.916581 
L 210.022639 71.348581 
z
" clip-path="url(#p9ac32b63ac)" style="fill: #e5243b; stroke: #000000; stroke-linejoin: miter"/>
   </g>
   <g id="patch_3">
    <path d="M 184.416 56.564581 
L 158.809361 71.348581 
L 158.809361 100.916581 
L 184.416 115.700581 
L 210.022639 100.916581 
L 210.022639 71.348581 
z
" clip-path="url(#p9ac32b63ac)" style="fill: #ffffff; stroke: #000000; stroke-linejoin: miter"/>
   </g>
   <g id="patch_4">
    <path d="M 236.16 56.564581 
L 210.553361 71.348581 
L 210.553361 100.916581 
L 236.16 115.700581 
L 261.766639 100.916581 
L 261.766639 71.348581 
z
" clip-path="url(#p9ac32b63ac)" style="fill: #dda63a; stroke: #000000; stroke-linejoin: miter"/>
   </g>
   <g id="patch_5">
    <path d="M 236.16 56.564581 
L 210.553361 71.348581 
L 210.553361 100.916581 
L 236.16 115.700581 
L 261.766639 100.916581 
L 261.766639 71.348581 
z
" clip-path="url(#p9ac32b63ac)" style="fill: #ffffff; stroke: #000000; stroke-linejoin: miter"/>
   </g>
   <g id="patch_6">
    <path d="M 287.904 56.564581 
L 262.297361 71.348581 
L 262.297361 100.916581 
L 287.904 115.700581 
L 313.510639 100.916581 
L 313.510639 71.348581 
z
" clip-path="url(#p9ac32b63ac)" style="fill: #4c9f38; stroke: #000000; stroke-linejoin: miter"/>
   </g>
   <g id="patch_7">
    <path d="M 287.904 56.564581 
L 262.297361 71.348581 
L 262.297361 100.916581 
L 287.904 115.700581 
L 313.510639 100.916581 
L 313.510639 71.348581 
z
" clip-path="url(#p9ac32b63ac)" style="fill: #ffffff; stroke: #000000; stroke-linejoin: miter"/>
   </g>
   <g id="patch_8">
    <path d="M 158.544 100.608 
L 132.937361 115.392 
L 132.937361 144.96 
L 158.544 159.744 
L 184.150639 144.96 
L 184.150639 115.392 
z
" clip-path="url(#p9ac32b63ac)" style="fill: #c5192d; stroke: #000000; stroke-linejoin: miter"/>
   </g>
   <g id="patch_9">
    <path d="M 158.544 100.608 
L 132.937361 115.392 
L 132.937361 144.96 
L 158.544 159.744 
L 184.150639 144.96 
L 184.150639 115.392 
z
" clip-path="url(#p9ac32b63ac)" style="fill: #ffffff; stroke: #000000; stroke-linejoin: miter"/>
   </g>
   <g id="patch_10">
    <path d="M 210.288 100.608 
L 184.681361 115.392 
L 184.681361 144.96 
L 210.288 159.744 
L 235.894639 144.96 
L 235.894639 115.392 
z
" clip-path="url(#p9ac32b63ac)" style="fill: #ff3a21; stroke: #000000; stroke-linejoin: miter"/>
   </g>
   <g id="patch_11">
    <path d="M 210.288 100.608 
L 184.681361 115.392 
L 184.681361 144.96 
L 210.288 159.744 
L 235.894639 144.96 
L 235.894639 115.392 
z
" clip-path="url(#p9ac32b63ac)" style="fill: #ffffff; stroke: #000000; stroke-linejoin: miter"/>
   </g>
   <g id="patch_12">
    <path d="M 262.032 100.608 
L 236.425361 115.392 
L 236.425361 144.96 
L 262.032 159.744 
L 287.638639 144.96 
L 287.638639 115.392 
z
" clip-path="url(#p9ac32b63ac)" style="fill: #26bde2; stroke: #000000; stroke-linejoin: miter"/>
   </g>
   <g id="patch_13">
    <path d="M 262.032 100.608 
L 236.425361 115.392 
L 236.425361 144.96 
L 262.032 159.744 
L 287.638639 144.96 
L 287.638639 115.392 
z
" clip-path="url(#p9ac32b63ac)" style="fill: #ffffff; stroke: #000000; stroke-linejoin: miter"/>
   </g>
   <g id="patch_14">
    <path d="M 313.776 100.608 
L 288.169361 115.392 
L 288.169361 144.96 
L 313.776 159.744 
L 339.382639 144.96 
L 339.382639 115.392 
z
" clip-path="url(#p9ac32b63ac)" style="fill: #fcc30b; stroke: #000000; stroke-linejoin: miter"/>
   </g>
   <g id="patch_15">
    <path d="M 313.776 100.608 
L 288.169361 115.392 
L 288.169361 144.96 
L 313.776 159.744 
L 339.382639 144.96 
L 339.382639 115.392 
z
" clip-path="url(#p9ac32b63ac)" style="fill: #ffffff; stroke: #000000; stroke-linejoin: miter"/>
   </g>
   <g id="patch_16">
    <path d="M 184.416 144.651419 
L 158.809361 159.435419 
L 158.809361 189.003419 
L 184.416 203.787419 
L 210.022639 189.003419 
L 210.022639 159.435419 
z
" clip-path="url(#p9ac32b63ac)" style="fill: #a21942; stroke: #000000; stroke-linejoin: miter"/>
   </g>
   <g id="patch_17">
    <path d="M 184.416 144.651419 
L 158.809361 159.435419 
L 158.809361 189.003419 
L 184.416 203.787419 
L 210.022639 189.003419 
L 210.022639 159.435419 
z
" clip-path="url(#p9ac32b63ac)" style="fill: #ffffff; stroke: #000000; stroke-linejoin: miter"/>
   </g>
   <g id="patch_18">
    <path d="M 236.16 144.651419 
L 210.553361 159.435419 
L 210.553361 189.003419 
L 236.16 203.787419 
L 261.766639 189.003419 
L 261.766639 159.435419 
z
" clip-path="url(#p9ac32b63ac)" style="fill: #fd6925; stroke: #000000; stroke-linejoin: miter"/>
   </g>
   <g id="patch_19">
    <path d="M 236.16 144.651419 
L 210.553361 159.435419 
L 210.553361 189.003419 
L 236.16 203.787419 
L 261.766639 189.003419 
L 261.766639 159.435419 
z
" clip-path="url(#p9ac32b63ac)" style="fill: #ffffff; stroke: #000000; stroke-linejoin: miter"/>
   </g>
   <g id="patch_20">
    <path d="M 287.904 144.651419 
L 262.297361 159.435419 
L 262.297361 189.003419 
L 287.904 203.787419 
L 313.510639 189.003419 
L 313.510639 159.435419 
z
" clip-path="url(#p9ac32b63ac)" style="fill: #dd1367; stroke: #000000; stroke-linejoin: miter"/>
   </g>
   <g id="patch_21">
    <path d="M 287.904 144.651419 
L 262.297361 159.435419 
L 262.297361 189.003419 
L 287.904 203.787419 
L 313.510639 189.003419 
L 313.510639 159.435419 
z
" clip-path="url(#p9ac32b63ac)" style="fill: #ffffff; stroke: #000000; stroke-linejoin: miter"/>
   </g>
   <g id="patch_22">
    <path d="M 158.544 188.694839 
L 132.937361 203.478839 
L 132.937361 233.046839 
L 158.544 247.830839 
L 184.150639 233.046839 
L 184.150639 203.478839 
z
" clip-path="url(#p9ac32b63ac)" style="fill: #fd9d24; stroke: #000000; stroke-linejoin: miter"/>
   </g>
   <g id="patch_23">
    <path d="M 158.544 188.694839 
L 132.937361 203.478839 
L 132.937361 233.046839 
L 158.544 247.830839 
L 184.150639 233.046839 
L 184.150639 203.478839 
z
" clip-path="url(#p9ac32b63ac)" style="fill: #ffffff; stroke: #000000; stroke-linejoin: miter"/>
   </g>
   <g id="patch_24">
    <path d="M 210.288 188.694839 
L 184.681361 203.478839 
L 184.681361 233.046839 
L 210.288 247.830839 
L 235.894639 233.046839 
L 235.894639 203.478839 
z
" clip-path="url(#p9ac32b63ac)" style="fill: #bf8b2e; stroke: #000000; stroke-linejoin: miter"/>
   </g>
   <g id="patch_25">
    <path d="M 210.288 188.694839 
L 184.681361 203.478839 
L 184.681361 233.046839 
L 210.288 247.830839 
L 235.894639 233.046839 
L 235.894639 203.478839 
z
" clip-path="url(#p9ac32b63ac)" style="fill: #ffffff; stroke: #000000; stroke-linejoin: miter"/>
   </g>
   <g id="patch_26">
    <path d="M 262.032 188.694839 
L 236.425361 203.478839 
L 236.425361 233.046839 
L 262.032 247.830839 
L 287.638639 233.046839 
L 287.638639 203.478839 
z
" clip-path="url(#p9ac32b63ac)" style="fill: #3f7e44; stroke: #000000; stroke-linejoin: miter"/>
   </g>
   <g id="patch_27">
    <path d="M 262.032 188.694839 
L 236.425361 203.478839 
L 236.425361 233.046839 
L 262.032 247.830839 
L 287.638639 233.046839 
L 287.638639 203.478839 
z
" clip-path="url(#p9ac32b63ac)" style="fill: #ffffff; stroke: #000000; stroke-linejoin: miter"/>
   </g>
   <g id="patch_28">
    <path d="M 313.776 188.694839 
L 288.169361 203.478839 
L 288.169361 233.046839 
L 313.776 247.830839 
L 339.382639 233.046839 
L 339.382639 203.478839 
z
" clip-path="url(#p9ac32b63ac)" style="fill: #0a97d9; stroke: #000000; stroke-linejoin: miter"/>
   </g>
   <g id="patch_29">
    <path d="M 313.776 188.694839 
L 288.169361 203.478839 
L 288.169361 233.046839 
L 313.776 247.830839 
L 339.382639 233.046839 
L 339.382639 203.478839 
z
" clip-path="url(#p9ac32b63ac)" style="fill: #ffffff; stroke: #000000; stroke-linejoin: miter"/>
   </g>
   <g id="patch_30">
    <path d="M 184.416 232.738258 
L 158.809361 247.522258 
L 158.809361 277.090258 
L 184.416 291.874258 
L 210.022639 277.090258 
L 210.022639 247.522258 
z
" clip-path="url(#p9ac32b63ac)" style="fill: #56c02b; stroke: #000000; stroke-linejoin: miter"/>
   </g>
   <g id="patch_31">
    <path d="M 184.416 232.738258 
L 158.809361 247.522258 
L 158.809361 277.090258 
L 184.416 291.874258 
L 210.022639 277.090258 
L 210.022639 247.522258 
z
" clip-path="url(#p9ac32b63ac)" style="fill: #ffffff; stroke: #000000; stroke-linejoin: miter"/>
   </g>
   <g id="patch_32">
    <path d="M 236.16 232.738258 
L 210.553361 247.522258 
L 210.553361 277.090258 
L 236.16 291.874258 
L 261.766639 277.090258 
L 261.766639 247.522258 
z
" clip-path="url(#p9ac32b63ac)" style="fill: #00689d; stroke: #000000; stroke-linejoin: miter"/>
   </g>
   <g id="patch_33">
    <path d="M 236.16 247.522258 
L 223.35668 254.914258 
L 223.35668 269.698258 
L 236.16 277.090258 
L 248.96332 269.698258 
L 248.96332 254.914258 
z
" clip-path="url(#p9ac32b63ac)" style="fill: #ffffff; stroke: #000000; stroke-linejoin: miter"/>
   </g>
   <g id="patch_34">
    <path d="M 287.904 232.738258 
L 262.297361 247.522258 
L 262.297361 277.090258 
L 287.904 291.874258 
L 313.510639 277.090258 
L 313.510639 247.522258 
z
" clip-path="url(#p9ac32b63ac)" style="fill: #19486a; stroke: #000000; stroke-linejoin: miter"/>
   </g>
   <g id="patch_35">
    <path d="M 287.904 232.738258 
L 262.297361 247.522258 
L 262.297361 277.090258 
L 287.904 291.874258 
L 313.510639 277.090258 
L 313.510639 247.522258 
z
" clip-path="url(#p9ac32b63ac)" style="fill: #ffffff; stroke: #000000; stroke-linejoin: miter"/>
   </g>
  </g>
 </g>
 <defs>
  <clipPath id="p9ac32b63ac">
   <rect x="117.888" y="41.472" width="236.544" height="266.112"/>
  </clipPath>
 </defs>
</svg>
