<?xml version="1.0" encoding="utf-8" standalone="no"?>
<!DOCTYPE svg PUBLIC "-//W3C//DTD SVG 1.1//EN"
  "http://www.w3.org/Graphics/SVG/1.1/DTD/svg11.dtd">
<svg xmlns:xlink="http://www.w3.org/1999/xlink" width="460.8pt" height="345.6pt" viewBox="0 0 460.8 345.6" xmlns="http://www.w3.org/2000/svg" version="1.1">
 <metadata>
  <rdf:RDF xmlns:dc="http://purl.org/dc/elements/1.1/" xmlns:cc="http://creativecommons.org/ns#" xmlns:rdf="http://www.w3.org/1999/02/22-rdf-syntax-ns#">
   <cc:Work>
    <dc:type rdf:resource="http://purl.org/dc/dcmitype/StillImage"/>
    <dc:date>2024-12-09T12:56:42.462085</dc:date>
    <dc:format>image/svg+xml</dc:format>
    <dc:creator>
     <cc:Agent>
      <dc:title>Matplotlib v3.8.0, https://matplotlib.org/</dc:title>
     </cc:Agent>
    </dc:creator>
   </cc:Work>
  </rdf:RDF>
 </metadata>
 <defs>
  <style type="text/css">*{stroke-linejoin: round; stroke-linecap: butt}</style>
 </defs>
 <g id="figure_1">
  <g id="patch_1">
   <path d="M 0 345.6 
L 460.8 345.6 
L 460.8 0 
L 0 0 
L 0 345.6 
z
" style="fill: none"/>
  </g>
  <g id="axes_1">
   <g id="patch_2">
    <path d="M 184.416 56.564581 
L 158.809361 71.348581 
L 158.809361 100.916581 
L 184.416 115.700581 
L 210.022639 100.916581 
L 210.022639 71.348581 
z
" clip-path="url(#p64c16f2e0b)" style="fill: #e5243b; stroke: #000000; stroke-linejoin: miter"/>
   </g>
   <g id="patch_3">
    <path d="M 184.416 58.734236 
L 160.688337 72.433408 
L 160.688337 99.831753 
L 184.416 113.530926 
L 208.143663 99.831753 
L 208.143663 72.433408 
z
" clip-path="url(#p64c16f2e0b)" style="fill: #ffffff; stroke: #000000; stroke-linejoin: miter"/>
   </g>
   <g id="patch_4">
    <path d="M 236.16 56.564581 
L 210.553361 71.348581 
L 210.553361 100.916581 
L 236.16 115.700581 
L 261.766639 100.916581 
L 261.766639 71.348581 
z
" clip-path="url(#p64c16f2e0b)" style="fill: #dda63a; stroke: #000000; stroke-linejoin: miter"/>
   </g>
   <g id="patch_5">
    <path d="M 236.16 62.203011 
L 215.436385 74.167796 
L 215.436385 98.097365 
L 236.16 110.06215 
L 256.883615 98.097365 
L 256.883615 74.167796 
z
" clip-path="url(#p64c16f2e0b)" style="fill: #ffffff; stroke: #000000; stroke-linejoin: miter"/>
   </g>
   <g id="patch_6">
    <path d="M 287.904 56.564581 
L 262.297361 71.348581 
L 262.297361 100.916581 
L 287.904 115.700581 
L 313.510639 100.916581 
L 313.510639 71.348581 
z
" clip-path="url(#p64c16f2e0b)" style="fill: #4c9f38; stroke: #000000; stroke-linejoin: miter"/>
   </g>
   <g id="patch_7">
    <path d="M 287.904 73.488037 
L 276.953504 79.810309 
L 276.953504 92.454852 
L 287.904 98.777124 
L 298.854496 92.454852 
L 298.854496 79.810309 
z
" clip-path="url(#p64c16f2e0b)" style="fill: #ffffff; stroke: #000000; stroke-linejoin: miter"/>
   </g>
   <g id="patch_8">
    <path d="M 158.544 100.608 
L 132.937361 115.392 
L 132.937361 144.96 
L 158.544 159.744 
L 184.150639 144.96 
L 184.150639 115.392 
z
" clip-path="url(#p64c16f2e0b)" style="fill: #c5192d; stroke: #000000; stroke-linejoin: miter"/>
   </g>
   <g id="patch_9">
    <path d="M 158.544 105.956628 
L 137.569408 118.066314 
L 137.569408 142.285686 
L 158.544 154.395372 
L 179.518592 142.285686 
L 179.518592 118.066314 
z
" clip-path="url(#p64c16f2e0b)" style="fill: #ffffff; stroke: #000000; stroke-linejoin: miter"/>
   </g>
   <g id="patch_10">
    <path d="M 210.288 100.608 
L 184.681361 115.392 
L 184.681361 144.96 
L 210.288 159.744 
L 235.894639 144.96 
L 235.894639 115.392 
z
" clip-path="url(#p64c16f2e0b)" style="fill: #ff3a21; stroke: #000000; stroke-linejoin: miter"/>
   </g>
   <g id="patch_11">
    <path d="M 210.288 105.450419 
L 188.875018 117.813209 
L 188.875018 142.538791 
L 210.288 154.901581 
L 231.700982 142.538791 
L 231.700982 117.813209 
z
" clip-path="url(#p64c16f2e0b)" style="fill: #ffffff; stroke: #000000; stroke-linejoin: miter"/>
   </g>
   <g id="patch_12">
    <path d="M 262.032 100.608 
L 236.425361 115.392 
L 236.425361 144.96 
L 262.032 159.744 
L 287.638639 144.96 
L 287.638639 115.392 
z
" clip-path="url(#p64c16f2e0b)" style="fill: #26bde2; stroke: #000000; stroke-linejoin: miter"/>
   </g>
   <g id="patch_13">
    <path d="M 262.032 106.392873 
L 241.435208 118.284437 
L 241.435208 142.067563 
L 262.032 153.959127 
L 282.628792 142.067563 
L 282.628792 118.284437 
z
" clip-path="url(#p64c16f2e0b)" style="fill: #ffffff; stroke: #000000; stroke-linejoin: miter"/>
   </g>
   <g id="patch_14">
    <path d="M 313.776 100.608 
L 288.169361 115.392 
L 288.169361 144.96 
L 313.776 159.744 
L 339.382639 144.96 
L 339.382639 115.392 
z
" clip-path="url(#p64c16f2e0b)" style="fill: #fcc30b; stroke: #000000; stroke-linejoin: miter"/>
   </g>
   <g id="patch_15">
    <path d="M 313.776 106.060848 
L 292.891666 118.118424 
L 292.891666 142.233576 
L 313.776 154.291152 
L 334.660334 142.233576 
L 334.660334 118.118424 
z
" clip-path="url(#p64c16f2e0b)" style="fill: #ffffff; stroke: #000000; stroke-linejoin: miter"/>
   </g>
   <g id="patch_16">
    <path d="M 184.416 144.651419 
L 158.809361 159.435419 
L 158.809361 189.003419 
L 184.416 203.787419 
L 210.022639 189.003419 
L 210.022639 159.435419 
z
" clip-path="url(#p64c16f2e0b)" style="fill: #a21942; stroke: #000000; stroke-linejoin: miter"/>
   </g>
   <g id="patch_17">
    <path d="M 184.416 150.076846 
L 163.507919 162.148133 
L 163.507919 186.290706 
L 184.416 198.361992 
L 205.324081 186.290706 
L 205.324081 162.148133 
z
" clip-path="url(#p64c16f2e0b)" style="fill: #ffffff; stroke: #000000; stroke-linejoin: miter"/>
   </g>
   <g id="patch_18">
    <path d="M 236.16 144.651419 
L 210.553361 159.435419 
L 210.553361 189.003419 
L 236.16 203.787419 
L 261.766639 189.003419 
L 261.766639 159.435419 
z
" clip-path="url(#p64c16f2e0b)" style="fill: #fd6925; stroke: #000000; stroke-linejoin: miter"/>
   </g>
   <g id="patch_19">
    <path d="M 236.16 151.869858 
L 216.804712 163.044639 
L 216.804712 185.3942 
L 236.16 196.568981 
L 255.515288 185.3942 
L 255.515288 163.044639 
z
" clip-path="url(#p64c16f2e0b)" style="fill: #ffffff; stroke: #000000; stroke-linejoin: miter"/>
   </g>
   <g id="patch_20">
    <path d="M 287.904 144.651419 
L 262.297361 159.435419 
L 262.297361 189.003419 
L 287.904 203.787419 
L 313.510639 189.003419 
L 313.510639 159.435419 
z
" clip-path="url(#p64c16f2e0b)" style="fill: #dd1367; stroke: #000000; stroke-linejoin: miter"/>
   </g>
   <g id="patch_21">
    <path d="M 287.904 151.231402 
L 267.995793 162.725411 
L 267.995793 185.713428 
L 287.904 197.207437 
L 307.812207 185.713428 
L 307.812207 162.725411 
z
" clip-path="url(#p64c16f2e0b)" style="fill: #ffffff; stroke: #000000; stroke-linejoin: miter"/>
   </g>
   <g id="patch_22">
    <path d="M 158.544 188.694839 
L 132.937361 203.478839 
L 132.937361 233.046839 
L 158.544 247.830839 
L 184.150639 233.046839 
L 184.150639 203.478839 
z
" clip-path="url(#p64c16f2e0b)" style="fill: #fd9d24; stroke: #000000; stroke-linejoin: miter"/>
   </g>
   <g id="patch_23">
    <path d="M 158.544 193.386647 
L 137.000586 205.824743 
L 137.000586 230.700935 
L 158.544 243.139031 
L 180.087414 230.700935 
L 180.087414 205.824743 
z
" clip-path="url(#p64c16f2e0b)" style="fill: #ffffff; stroke: #000000; stroke-linejoin: miter"/>
   </g>
   <g id="patch_24">
    <path d="M 210.288 188.694839 
L 184.681361 203.478839 
L 184.681361 233.046839 
L 210.288 247.830839 
L 235.894639 233.046839 
L 235.894639 203.478839 
z
" clip-path="url(#p64c16f2e0b)" style="fill: #bf8b2e; stroke: #000000; stroke-linejoin: miter"/>
   </g>
   <g id="patch_25">
    <path d="M 210.288 196.973243 
L 191.850669 207.618041 
L 191.850669 228.907637 
L 210.288 239.552435 
L 228.725331 228.907637 
L 228.725331 207.618041 
z
" clip-path="url(#p64c16f2e0b)" style="fill: #ffffff; stroke: #000000; stroke-linejoin: miter"/>
   </g>
   <g id="patch_26">
    <path d="M 262.032 188.694839 
L 236.425361 203.478839 
L 236.425361 233.046839 
L 262.032 247.830839 
L 287.638639 233.046839 
L 287.638639 203.478839 
z
" clip-path="url(#p64c16f2e0b)" style="fill: #3f7e44; stroke: #000000; stroke-linejoin: miter"/>
   </g>
   <g id="patch_27">
    <path d="M 262.032 190.493176 
L 237.982766 204.378007 
L 237.982766 232.14767 
L 262.032 246.032502 
L 286.081234 232.14767 
L 286.081234 204.378007 
z
" clip-path="url(#p64c16f2e0b)" style="fill: #ffffff; stroke: #000000; stroke-linejoin: miter"/>
   </g>
   <g id="patch_28">
    <path d="M 313.776 188.694839 
L 288.169361 203.478839 
L 288.169361 233.046839 
L 313.776 247.830839 
L 339.382639 233.046839 
L 339.382639 203.478839 
z
" clip-path="url(#p64c16f2e0b)" style="fill: #0a97d9; stroke: #000000; stroke-linejoin: miter"/>
   </g>
   <g id="patch_29">
    <path d="M 313.776 193.511549 
L 292.340754 205.887194 
L 292.340754 230.638484 
L 313.776 243.014128 
L 335.211246 230.638484 
L 335.211246 205.887194 
z
" clip-path="url(#p64c16f2e0b)" style="fill: #ffffff; stroke: #000000; stroke-linejoin: miter"/>
   </g>
   <g id="patch_30">
    <path d="M 184.416 232.738258 
L 158.809361 247.522258 
L 158.809361 277.090258 
L 184.416 291.874258 
L 210.022639 277.090258 
L 210.022639 247.522258 
z
" clip-path="url(#p64c16f2e0b)" style="fill: #56c02b; stroke: #000000; stroke-linejoin: miter"/>
   </g>
   <g id="patch_31">
    <path d="M 184.416 240.574023 
L 165.595333 251.440141 
L 165.595333 273.172375 
L 184.416 284.038493 
L 203.236667 273.172375 
L 203.236667 251.440141 
z
" clip-path="url(#p64c16f2e0b)" style="fill: #ffffff; stroke: #000000; stroke-linejoin: miter"/>
   </g>
   <g id="patch_32">
    <path d="M 236.16 232.738258 
L 210.553361 247.522258 
L 210.553361 277.090258 
L 236.16 291.874258 
L 261.766639 277.090258 
L 261.766639 247.522258 
z
" clip-path="url(#p64c16f2e0b)" style="fill: #00689d; stroke: #000000; stroke-linejoin: miter"/>
   </g>
   <g id="patch_33">
    <path d="M 236.16 241.447198 
L 218.095524 251.876728 
L 218.095524 272.735788 
L 236.16 283.165318 
L 254.224476 272.735788 
L 254.224476 251.876728 
z
" clip-path="url(#p64c16f2e0b)" style="fill: #ffffff; stroke: #000000; stroke-linejoin: miter"/>
   </g>
   <g id="patch_34">
    <path d="M 287.904 232.738258 
L 262.297361 247.522258 
L 262.297361 277.090258 
L 287.904 291.874258 
L 313.510639 277.090258 
L 313.510639 247.522258 
z
" clip-path="url(#p64c16f2e0b)" style="fill: #19486a; stroke: #000000; stroke-linejoin: miter"/>
   </g>
   <g id="patch_35">
    <path d="M 287.904 240.092508 
L 268.666328 251.199383 
L 268.666328 273.413133 
L 287.904 284.520008 
L 307.141672 273.413133 
L 307.141672 251.199383 
z
" clip-path="url(#p64c16f2e0b)" style="fill: #ffffff; stroke: #000000; stroke-linejoin: miter"/>
   </g>
  </g>
 </g>
 <defs>
  <clipPath id="p64c16f2e0b">
   <rect x="117.888" y="41.472" width="236.544" height="266.112"/>
  </clipPath>
 </defs>
</svg>
